%TF.GenerationSoftware,KiCad,Pcbnew,9.0.3*%
%TF.CreationDate,2026-08-29T01:44:21-04:00*%
%TF.ProjectId,Microcoder,4d696372-6f63-46f6-9465-722e6b696361,rev?*%
%TF.SameCoordinates,Original*%
%TF.FileFunction,Copper,L1,Top*%
%TF.FilePolarity,Positive*%
%FSLAX46Y46*%
G04 Gerber Fmt 4.6, Leading zero omitted, Abs format (unit mm)*
G04 Created by KiCad (PCBNEW 9.0.3) date 2026-08-29 01:44:21*
%MOMM*%
%LPD*%
G01*
G04 APERTURE LIST*
G04 Aperture macros list*
%AMRoundRect*
0 Rectangle with rounded corners*
0 $1 Rounding radius*
0 $2 $3 $4 $5 $6 $7 $8 $9 X,Y pos of 4 corners*
0 Add a 4 corners polygon primitive as box body*
4,1,4,$2,$3,$4,$5,$6,$7,$8,$9,$2,$3,0*
0 Add four circle primitives for the rounded corners*
1,1,$1+$1,$2,$3*
1,1,$1+$1,$4,$5*
1,1,$1+$1,$6,$7*
1,1,$1+$1,$8,$9*
0 Add four rect primitives between the rounded corners*
20,1,$1+$1,$2,$3,$4,$5,0*
20,1,$1+$1,$4,$5,$6,$7,0*
20,1,$1+$1,$6,$7,$8,$9,0*
20,1,$1+$1,$8,$9,$2,$3,0*%
G04 Aperture macros list end*
%TA.AperFunction,SMDPad,CuDef*%
%ADD10RoundRect,0.150000X-0.825000X-0.150000X0.825000X-0.150000X0.825000X0.150000X-0.825000X0.150000X0*%
%TD*%
%TA.AperFunction,SMDPad,CuDef*%
%ADD11R,0.609600X1.549400*%
%TD*%
%TA.AperFunction,SMDPad,CuDef*%
%ADD12R,1.193800X1.803400*%
%TD*%
%TA.AperFunction,SMDPad,CuDef*%
%ADD13RoundRect,0.135000X0.135000X0.185000X-0.135000X0.185000X-0.135000X-0.185000X0.135000X-0.185000X0*%
%TD*%
%TA.AperFunction,SMDPad,CuDef*%
%ADD14RoundRect,0.250000X-0.475000X0.250000X-0.475000X-0.250000X0.475000X-0.250000X0.475000X0.250000X0*%
%TD*%
%TA.AperFunction,SMDPad,CuDef*%
%ADD15RoundRect,0.140000X0.140000X0.170000X-0.140000X0.170000X-0.140000X-0.170000X0.140000X-0.170000X0*%
%TD*%
%TA.AperFunction,ViaPad*%
%ADD16C,0.600000*%
%TD*%
%TA.AperFunction,Conductor*%
%ADD17C,0.200000*%
%TD*%
G04 APERTURE END LIST*
D10*
%TO.P,IC101,1,VDD5V*%
%TO.N,+3.3V*%
X-2475000Y1905000D03*
%TO.P,IC101,2,VDD3V3*%
X-2475000Y635000D03*
%TO.P,IC101,3,OUT*%
%TO.N,unconnected-(IC101-OUT-Pad3)*%
X-2475000Y-635000D03*
%TO.P,IC101,4,GND*%
%TO.N,GND*%
X-2475000Y-1905000D03*
%TO.P,IC101,5,PGO*%
%TO.N,unconnected-(IC101-PGO-Pad5)*%
X2475000Y-1905000D03*
%TO.P,IC101,6,SDA*%
%TO.N,/SDA*%
X2475000Y-635000D03*
%TO.P,IC101,7,SCL*%
%TO.N,/SCL*%
X2475000Y635000D03*
%TO.P,IC101,8,DIR*%
%TO.N,Net-(IC101-DIR)*%
X2475000Y1905000D03*
%TD*%
D11*
%TO.P,J101,1,Pin_1*%
%TO.N,+3.3V*%
X-1500000Y-3948500D03*
%TO.P,J101,2,Pin_2*%
%TO.N,GND*%
X-499999Y-3948500D03*
%TO.P,J101,3,Pin_3*%
%TO.N,/SDA*%
X499999Y-3948500D03*
%TO.P,J101,4,Pin_4*%
%TO.N,/SCL*%
X1500000Y-3948500D03*
D12*
%TO.P,J101,5*%
%TO.N,N/C*%
X-2799999Y-7773499D03*
%TO.P,J101,6*%
X2799999Y-7773499D03*
%TD*%
D13*
%TO.P,R102,1*%
%TO.N,+3.3V*%
X5260000Y750000D03*
%TO.P,R102,2*%
%TO.N,/SCL*%
X4240000Y750000D03*
%TD*%
D14*
%TO.P,C101,1*%
%TO.N,+3.3V*%
X-4750000Y200000D03*
%TO.P,C101,2*%
%TO.N,GND*%
X-4750000Y-1700000D03*
%TD*%
D13*
%TO.P,R103,1*%
%TO.N,+3.3V*%
X5260000Y2000000D03*
%TO.P,R103,2*%
%TO.N,Net-(IC101-DIR)*%
X4240000Y2000000D03*
%TD*%
%TO.P,R101,1*%
%TO.N,+3.3V*%
X5260000Y-750000D03*
%TO.P,R101,2*%
%TO.N,/SDA*%
X4240000Y-750000D03*
%TD*%
D15*
%TO.P,C102,1*%
%TO.N,+3.3V*%
X-4270000Y2000000D03*
%TO.P,C102,2*%
%TO.N,GND*%
X-5230000Y2000000D03*
%TD*%
D16*
%TO.N,GND*%
X-5250000Y1250000D03*
X-4750000Y-2750000D03*
X-2500000Y-2750000D03*
X-250000Y-2750000D03*
%TD*%
D17*
%TO.N,+3.3V*%
X-2910000Y200000D02*
X-2475000Y635000D01*
X-4750000Y200000D02*
X-2910000Y200000D01*
%TO.N,GND*%
X-2475000Y-2725000D02*
X-2500000Y-2750000D01*
X-5230000Y1270000D02*
X-5250000Y1250000D01*
X-2475000Y-1905000D02*
X-2475000Y-2725000D01*
X-499999Y-3948500D02*
X-499999Y-2999999D01*
X-4750000Y-1700000D02*
X-4750000Y-2750000D01*
X-499999Y-2999999D02*
X-250000Y-2750000D01*
X-5230000Y2000000D02*
X-5230000Y1270000D01*
%TO.N,/SCL*%
X2475000Y635000D02*
X4125000Y635000D01*
X1199000Y-3647500D02*
X1199000Y-294032D01*
X1500000Y-3948500D02*
X1199000Y-3647500D01*
X4125000Y635000D02*
X4240000Y750000D01*
X2128032Y635000D02*
X2475000Y635000D01*
X1199000Y-294032D02*
X2128032Y635000D01*
%TO.N,Net-(IC101-DIR)*%
X2475000Y1905000D02*
X4145000Y1905000D01*
X4145000Y1905000D02*
X4240000Y2000000D01*
%TO.N,/SDA*%
X499999Y-4629999D02*
X894200Y-5024200D01*
X4240000Y-2890000D02*
X4240000Y-750000D01*
X2475000Y-635000D02*
X4125000Y-635000D01*
X894200Y-5024200D02*
X2105800Y-5024200D01*
X2105800Y-5024200D02*
X4240000Y-2890000D01*
X4125000Y-635000D02*
X4240000Y-750000D01*
X499999Y-3948500D02*
X499999Y-4629999D01*
%TD*%
%TA.AperFunction,Conductor*%
%TO.N,+3.3V*%
G36*
X3913024Y2729815D02*
G01*
X3958779Y2677011D01*
X3968723Y2607853D01*
X3939698Y2544297D01*
X3900446Y2514100D01*
X3877898Y2503076D01*
X3877897Y2503076D01*
X3786924Y2412103D01*
X3772038Y2381654D01*
X3724909Y2330073D01*
X3657375Y2312159D01*
X3590877Y2333601D01*
X3572956Y2348436D01*
X3538346Y2383046D01*
X3538342Y2383050D01*
X3425304Y2440646D01*
X3425302Y2440646D01*
X3425301Y2440647D01*
X3358147Y2451282D01*
X3331519Y2455500D01*
X1618482Y2455499D01*
X1524696Y2440646D01*
X1411658Y2383050D01*
X1411654Y2383046D01*
X1411652Y2383045D01*
X1321954Y2293347D01*
X1321952Y2293344D01*
X1321950Y2293342D01*
X1289836Y2230315D01*
X1264352Y2180301D01*
X1249500Y2086524D01*
X1249500Y1723482D01*
X1260347Y1654998D01*
X1264354Y1629696D01*
X1314825Y1530642D01*
X1321951Y1516657D01*
X1321954Y1516652D01*
X1411652Y1426954D01*
X1411659Y1426949D01*
X1502852Y1380483D01*
X1553648Y1332508D01*
X1570442Y1264687D01*
X1547904Y1198552D01*
X1502852Y1159516D01*
X1411658Y1113050D01*
X1411655Y1113047D01*
X1411652Y1113045D01*
X1321954Y1023347D01*
X1321952Y1023344D01*
X1321950Y1023342D01*
X1295577Y971582D01*
X1264352Y910301D01*
X1249500Y816524D01*
X1249500Y453482D01*
X1257229Y404685D01*
X1260740Y382513D01*
X1265881Y350058D01*
X1263955Y349753D01*
X1265597Y292152D01*
X1233354Y236004D01*
X918531Y-78818D01*
X918527Y-78823D01*
X906676Y-99352D01*
X906675Y-99354D01*
X893899Y-121482D01*
X872386Y-158743D01*
X848500Y-247888D01*
X848500Y-2799300D01*
X828815Y-2866339D01*
X776011Y-2912094D01*
X724500Y-2923300D01*
X424500Y-2923300D01*
X357461Y-2903615D01*
X311706Y-2850811D01*
X300500Y-2799300D01*
X300500Y-2677527D01*
X300500Y-2677525D01*
X262984Y-2537515D01*
X250088Y-2515179D01*
X190511Y-2411988D01*
X190506Y-2411982D01*
X88017Y-2309493D01*
X88011Y-2309488D01*
X-37511Y-2237017D01*
X-37510Y-2237017D01*
X-79108Y-2225870D01*
X-177525Y-2199500D01*
X-322475Y-2199500D01*
X-462485Y-2237016D01*
X-462488Y-2237017D01*
X-588011Y-2309488D01*
X-588017Y-2309493D01*
X-690506Y-2411982D01*
X-690511Y-2411988D01*
X-750088Y-2515179D01*
X-762984Y-2537515D01*
X-791954Y-2645633D01*
X-828318Y-2705291D01*
X-891165Y-2735820D01*
X-955061Y-2729719D01*
X-1087820Y-2680203D01*
X-1087827Y-2680201D01*
X-1147355Y-2673800D01*
X-1250000Y-2673800D01*
X-1250000Y-5223200D01*
X-1147372Y-5223200D01*
X-1147355Y-5223199D01*
X-1087827Y-5216798D01*
X-1087820Y-5216796D01*
X-953113Y-5166554D01*
X-953106Y-5166550D01*
X-838014Y-5080391D01*
X-838009Y-5080386D01*
X-795341Y-5023389D01*
X-739407Y-4981518D01*
X-696074Y-4973700D01*
X-170523Y-4973700D01*
X-170520Y-4973699D01*
X-97463Y-4959167D01*
X-97462Y-4959166D01*
X-97459Y-4959166D01*
X-68887Y-4940075D01*
X-2214Y-4919199D01*
X65166Y-4937683D01*
X68834Y-4940040D01*
X97459Y-4959166D01*
X97462Y-4959166D01*
X97463Y-4959167D01*
X170520Y-4973699D01*
X170523Y-4973700D01*
X170525Y-4973700D01*
X296656Y-4973700D01*
X363695Y-4993385D01*
X384337Y-5010019D01*
X613731Y-5239412D01*
X678988Y-5304669D01*
X678991Y-5304670D01*
X678994Y-5304673D01*
X758906Y-5350811D01*
X758907Y-5350811D01*
X758912Y-5350814D01*
X848056Y-5374700D01*
X848058Y-5374700D01*
X2151942Y-5374700D01*
X2151944Y-5374700D01*
X2241088Y-5350814D01*
X2321012Y-5304670D01*
X4520470Y-3105212D01*
X4566614Y-3025288D01*
X4590500Y-2936143D01*
X4590500Y-2843856D01*
X4590500Y-1574027D01*
X4610185Y-1506988D01*
X4662989Y-1461233D01*
X4732147Y-1451289D01*
X4777622Y-1467295D01*
X4870807Y-1522405D01*
X5010000Y-1562844D01*
X5010000Y1876000D01*
X5029685Y1943039D01*
X5082489Y1988794D01*
X5134000Y2000000D01*
X5386000Y2000000D01*
X5453039Y1980315D01*
X5498794Y1927511D01*
X5510000Y1876000D01*
X5510000Y-1562844D01*
X5590905Y-1539340D01*
X5660775Y-1539539D01*
X5719445Y-1577481D01*
X5748288Y-1641120D01*
X5749500Y-1658416D01*
X5749500Y-1941290D01*
X5743552Y-1979235D01*
X3889451Y-7747548D01*
X3850196Y-7805348D01*
X3785923Y-7832749D01*
X3717040Y-7821053D01*
X3665415Y-7773972D01*
X3647399Y-7709603D01*
X3647399Y-6847122D01*
X3647398Y-6847120D01*
X3632866Y-6774063D01*
X3632865Y-6774059D01*
X3577500Y-6691198D01*
X3494639Y-6635833D01*
X3494638Y-6635832D01*
X3494634Y-6635831D01*
X3421576Y-6621299D01*
X3421573Y-6621299D01*
X2178425Y-6621299D01*
X2178422Y-6621299D01*
X2105363Y-6635831D01*
X2105359Y-6635832D01*
X2022498Y-6691198D01*
X1967132Y-6774059D01*
X1967131Y-6774063D01*
X1952599Y-6847120D01*
X1952599Y-8625500D01*
X1932914Y-8692539D01*
X1880110Y-8738294D01*
X1828599Y-8749500D01*
X-1828599Y-8749500D01*
X-1895638Y-8729815D01*
X-1941393Y-8677011D01*
X-1952599Y-8625500D01*
X-1952599Y-6847120D01*
X-1967131Y-6774063D01*
X-1967132Y-6774059D01*
X-2022498Y-6691198D01*
X-2105359Y-6635832D01*
X-2105363Y-6635831D01*
X-2178422Y-6621299D01*
X-2178425Y-6621299D01*
X-3421573Y-6621299D01*
X-3421576Y-6621299D01*
X-3494634Y-6635831D01*
X-3494638Y-6635832D01*
X-3494639Y-6635833D01*
X-3577500Y-6691198D01*
X-3632865Y-6774059D01*
X-3632866Y-6774063D01*
X-3647398Y-6847120D01*
X-3647399Y-6847122D01*
X-3647399Y-7709604D01*
X-3667084Y-7776643D01*
X-3719888Y-7822398D01*
X-3789046Y-7832342D01*
X-3852602Y-7803317D01*
X-3889451Y-7747549D01*
X-4846190Y-4771027D01*
X-2304800Y-4771027D01*
X-2304799Y-4771044D01*
X-2298398Y-4830572D01*
X-2298396Y-4830579D01*
X-2248154Y-4965286D01*
X-2248150Y-4965293D01*
X-2161990Y-5080387D01*
X-2161987Y-5080390D01*
X-2046893Y-5166550D01*
X-2046886Y-5166554D01*
X-1912179Y-5216796D01*
X-1912172Y-5216798D01*
X-1852644Y-5223199D01*
X-1852628Y-5223200D01*
X-1750000Y-5223200D01*
X-1750000Y-4198500D01*
X-2304800Y-4198500D01*
X-2304800Y-4771027D01*
X-4846190Y-4771027D01*
X-5034529Y-4185083D01*
X-5323348Y-3286534D01*
X-5325122Y-3216687D01*
X-5288852Y-3156968D01*
X-5226054Y-3126339D01*
X-5156666Y-3134523D01*
X-5117617Y-3160906D01*
X-5088015Y-3190509D01*
X-4962488Y-3262982D01*
X-4962487Y-3262982D01*
X-4962485Y-3262984D01*
X-4822475Y-3300500D01*
X-4822472Y-3300500D01*
X-4677528Y-3300500D01*
X-4677525Y-3300500D01*
X-4537515Y-3262984D01*
X-4537512Y-3262982D01*
X-4537511Y-3262982D01*
X-4411988Y-3190511D01*
X-4411986Y-3190510D01*
X-4411985Y-3190509D01*
X-4309491Y-3088015D01*
X-4309490Y-3088013D01*
X-4309488Y-3088011D01*
X-4237017Y-2962488D01*
X-4230411Y-2937834D01*
X-4199500Y-2822475D01*
X-4199500Y-2677525D01*
X-4224284Y-2585027D01*
X-4222622Y-2515179D01*
X-4183460Y-2457316D01*
X-4147843Y-2436753D01*
X-4032671Y-2393797D01*
X-4032664Y-2393793D01*
X-3917455Y-2307547D01*
X-3917452Y-2307544D01*
X-3860290Y-2231186D01*
X-3804356Y-2189315D01*
X-3734665Y-2184331D01*
X-3673342Y-2217817D01*
X-3650542Y-2249198D01*
X-3628050Y-2293342D01*
X-3538342Y-2383050D01*
X-3425304Y-2440646D01*
X-3425302Y-2440646D01*
X-3425301Y-2440647D01*
X-3363094Y-2450499D01*
X-3331519Y-2455500D01*
X-3152606Y-2455499D01*
X-3085568Y-2475183D01*
X-3039813Y-2527987D01*
X-3029869Y-2597145D01*
X-3032830Y-2611583D01*
X-3050500Y-2677525D01*
X-3050500Y-2822475D01*
X-3012984Y-2962485D01*
X-2940509Y-3088015D01*
X-2838015Y-3190509D01*
X-2712488Y-3262982D01*
X-2712487Y-3262982D01*
X-2712485Y-3262984D01*
X-2572475Y-3300500D01*
X-2572472Y-3300500D01*
X-2428800Y-3300500D01*
X-2361761Y-3320185D01*
X-2316006Y-3372989D01*
X-2304800Y-3424500D01*
X-2304800Y-3698500D01*
X-1750000Y-3698500D01*
X-1750000Y-2673800D01*
X-1756620Y-2667180D01*
X-1790105Y-2605857D01*
X-1785121Y-2536165D01*
X-1743249Y-2480232D01*
X-1677785Y-2455815D01*
X-1668939Y-2455499D01*
X-1618483Y-2455499D01*
X-1618482Y-2455499D01*
X-1524696Y-2440646D01*
X-1411658Y-2383050D01*
X-1411654Y-2383046D01*
X-1411652Y-2383045D01*
X-1321954Y-2293347D01*
X-1321952Y-2293344D01*
X-1321950Y-2293342D01*
X-1268945Y-2189315D01*
X-1264352Y-2180301D01*
X-1249500Y-2086524D01*
X-1249500Y-1723482D01*
X-1264354Y-1629697D01*
X-1264353Y-1629697D01*
X-1264354Y-1629696D01*
X-1321950Y-1516658D01*
X-1321951Y-1516657D01*
X-1321954Y-1516652D01*
X-1411652Y-1426954D01*
X-1411659Y-1426949D01*
X-1502852Y-1380483D01*
X-1553648Y-1332508D01*
X-1570442Y-1264687D01*
X-1547904Y-1198552D01*
X-1502852Y-1159516D01*
X-1411658Y-1113050D01*
X-1411655Y-1113047D01*
X-1411652Y-1113045D01*
X-1321954Y-1023347D01*
X-1321952Y-1023344D01*
X-1321950Y-1023342D01*
X-1277458Y-936022D01*
X-1264352Y-910301D01*
X-1249500Y-816524D01*
X-1249500Y-453482D01*
X-1264354Y-359697D01*
X-1264353Y-359697D01*
X-1264354Y-359696D01*
X-1321950Y-246658D01*
X-1321951Y-246657D01*
X-1327689Y-238759D01*
X-1324757Y-236629D01*
X-1349550Y-191171D01*
X-1344531Y-121482D01*
X-1302632Y-65569D01*
X-1291491Y-58140D01*
X-1248444Y-32682D01*
X-1248438Y-32678D01*
X-1132321Y83438D01*
X-1132314Y83447D01*
X-1048718Y224801D01*
X-1002899Y382513D01*
X-1002704Y384998D01*
X-1002705Y385000D01*
X-2351000Y385000D01*
X-2418039Y404685D01*
X-2463794Y457489D01*
X-2475000Y509000D01*
X-2475000Y635000D01*
X-2601000Y635000D01*
X-2668039Y654685D01*
X-2713794Y707489D01*
X-2725000Y759000D01*
X-2725000Y885000D01*
X-2225000Y885000D01*
X-1002705Y885000D01*
X-1002704Y885001D01*
X-1002899Y887486D01*
X-1048718Y1045198D01*
X-1132314Y1186552D01*
X-1137100Y1192722D01*
X-1134753Y1194542D01*
X-1161564Y1243642D01*
X-1156580Y1313334D01*
X-1135541Y1346069D01*
X-1137100Y1347278D01*
X-1132314Y1353447D01*
X-1048718Y1494801D01*
X-1002899Y1652513D01*
X-1002704Y1654998D01*
X-1002705Y1655000D01*
X-2225000Y1655000D01*
X-2225000Y885000D01*
X-2725000Y885000D01*
X-2725000Y1655000D01*
X-3956000Y1655000D01*
X-4011454Y1668091D01*
X-4201454Y1763091D01*
X-4206468Y1767755D01*
X-4213039Y1769685D01*
X-4231719Y1791242D01*
X-4252613Y1810678D01*
X-4254309Y1817314D01*
X-4258794Y1822489D01*
X-4270000Y1874000D01*
X-4270000Y2126000D01*
X-4250315Y2193039D01*
X-4197511Y2238794D01*
X-4146000Y2250000D01*
X-3484000Y2250000D01*
X-3416961Y2230315D01*
X-3371206Y2177511D01*
X-3368062Y2163062D01*
X-3360000Y2155000D01*
X-1002705Y2155000D01*
X-1002704Y2155001D01*
X-1002899Y2157486D01*
X-1048718Y2315198D01*
X-1132314Y2456552D01*
X-1132321Y2456561D01*
X-1213579Y2537819D01*
X-1247064Y2599142D01*
X-1242080Y2668834D01*
X-1200208Y2724767D01*
X-1134744Y2749184D01*
X-1125898Y2749500D01*
X3845985Y2749500D01*
X3913024Y2729815D01*
G37*
%TD.AperFunction*%
%TD*%
M02*
