%TF.GenerationSoftware,KiCad,Pcbnew,9.0.3*%
%TF.CreationDate,2026-08-29T01:44:21-04:00*%
%TF.ProjectId,Microcoder,4d696372-6f63-46f6-9465-722e6b696361,rev?*%
%TF.SameCoordinates,Original*%
%TF.FileFunction,Legend,Bot*%
%TF.FilePolarity,Positive*%
%FSLAX46Y46*%
G04 Gerber Fmt 4.6, Leading zero omitted, Abs format (unit mm)*
G04 Created by KiCad (PCBNEW 9.0.3) date 2026-08-29 01:44:21*
%MOMM*%
%LPD*%
G01*
G04 APERTURE LIST*
%ADD10C,0.200000*%
%ADD11C,0.508000*%
G04 APERTURE END LIST*
D10*
X2046993Y-6413171D02*
X2189850Y-6341742D01*
X2189850Y-6341742D02*
X2475564Y-6341742D01*
X2475564Y-6341742D02*
X2618422Y-6413171D01*
X2618422Y-6413171D02*
X2761279Y-6556028D01*
X2761279Y-6556028D02*
X2832707Y-6698885D01*
X2832707Y-6698885D02*
X2832707Y-6984600D01*
X2832707Y-6984600D02*
X2761279Y-7127457D01*
X2761279Y-7127457D02*
X2618422Y-7270314D01*
X2618422Y-7270314D02*
X2475564Y-7341742D01*
X2475564Y-7341742D02*
X2189850Y-7341742D01*
X2189850Y-7341742D02*
X2046993Y-7270314D01*
X2332707Y-5841742D02*
X2689850Y-5913171D01*
X2689850Y-5913171D02*
X3046993Y-6127457D01*
X3046993Y-6127457D02*
X3261279Y-6484600D01*
X3261279Y-6484600D02*
X3332707Y-6841742D01*
X3332707Y-6841742D02*
X3261279Y-7198885D01*
X3261279Y-7198885D02*
X3046993Y-7556028D01*
X3046993Y-7556028D02*
X2689850Y-7770314D01*
X2689850Y-7770314D02*
X2332707Y-7841742D01*
X2332707Y-7841742D02*
X1975564Y-7770314D01*
X1975564Y-7770314D02*
X1618422Y-7556028D01*
X1618422Y-7556028D02*
X1404136Y-7198885D01*
X1404136Y-7198885D02*
X1332707Y-6841742D01*
X1332707Y-6841742D02*
X1404136Y-6484600D01*
X1404136Y-6484600D02*
X1618422Y-6127457D01*
X1618422Y-6127457D02*
X1975564Y-5913171D01*
X1975564Y-5913171D02*
X2332707Y-5841742D01*
X-167292Y-7413171D02*
X-95864Y-7484600D01*
X-95864Y-7484600D02*
X118421Y-7556028D01*
X118421Y-7556028D02*
X261278Y-7556028D01*
X261278Y-7556028D02*
X475564Y-7484600D01*
X475564Y-7484600D02*
X618421Y-7341742D01*
X618421Y-7341742D02*
X689850Y-7198885D01*
X689850Y-7198885D02*
X761278Y-6913171D01*
X761278Y-6913171D02*
X761278Y-6698885D01*
X761278Y-6698885D02*
X689850Y-6413171D01*
X689850Y-6413171D02*
X618421Y-6270314D01*
X618421Y-6270314D02*
X475564Y-6127457D01*
X475564Y-6127457D02*
X261278Y-6056028D01*
X261278Y-6056028D02*
X118421Y-6056028D01*
X118421Y-6056028D02*
X-95864Y-6127457D01*
X-95864Y-6127457D02*
X-167292Y-6198885D01*
X-1595864Y-6127457D02*
X-1453007Y-6056028D01*
X-1453007Y-6056028D02*
X-1238721Y-6056028D01*
X-1238721Y-6056028D02*
X-1024435Y-6127457D01*
X-1024435Y-6127457D02*
X-881578Y-6270314D01*
X-881578Y-6270314D02*
X-810149Y-6413171D01*
X-810149Y-6413171D02*
X-738721Y-6698885D01*
X-738721Y-6698885D02*
X-738721Y-6913171D01*
X-738721Y-6913171D02*
X-810149Y-7198885D01*
X-810149Y-7198885D02*
X-881578Y-7341742D01*
X-881578Y-7341742D02*
X-1024435Y-7484600D01*
X-1024435Y-7484600D02*
X-1238721Y-7556028D01*
X-1238721Y-7556028D02*
X-1381578Y-7556028D01*
X-1381578Y-7556028D02*
X-1595864Y-7484600D01*
X-1595864Y-7484600D02*
X-1667292Y-7413171D01*
X-1667292Y-7413171D02*
X-1667292Y-6913171D01*
X-1667292Y-6913171D02*
X-1381578Y-6913171D01*
X-3167292Y-7556028D02*
X-2667292Y-6841742D01*
X-2310149Y-7556028D02*
X-2310149Y-6056028D01*
X-2310149Y-6056028D02*
X-2881578Y-6056028D01*
X-2881578Y-6056028D02*
X-3024435Y-6127457D01*
X-3024435Y-6127457D02*
X-3095864Y-6198885D01*
X-3095864Y-6198885D02*
X-3167292Y-6341742D01*
X-3167292Y-6341742D02*
X-3167292Y-6556028D01*
X-3167292Y-6556028D02*
X-3095864Y-6698885D01*
X-3095864Y-6698885D02*
X-3024435Y-6770314D01*
X-3024435Y-6770314D02*
X-2881578Y-6841742D01*
X-2881578Y-6841742D02*
X-2310149Y-6841742D01*
X3321428Y773803D02*
X3321428Y2273803D01*
X3321428Y2273803D02*
X2821428Y1202374D01*
X2821428Y1202374D02*
X2321428Y2273803D01*
X2321428Y2273803D02*
X2321428Y773803D01*
X1607142Y773803D02*
X1607142Y1773803D01*
X1607142Y2273803D02*
X1678570Y2202374D01*
X1678570Y2202374D02*
X1607142Y2130946D01*
X1607142Y2130946D02*
X1535713Y2202374D01*
X1535713Y2202374D02*
X1607142Y2273803D01*
X1607142Y2273803D02*
X1607142Y2130946D01*
X249999Y845232D02*
X392856Y773803D01*
X392856Y773803D02*
X678570Y773803D01*
X678570Y773803D02*
X821427Y845232D01*
X821427Y845232D02*
X892856Y916660D01*
X892856Y916660D02*
X964284Y1059517D01*
X964284Y1059517D02*
X964284Y1488089D01*
X964284Y1488089D02*
X892856Y1630946D01*
X892856Y1630946D02*
X821427Y1702374D01*
X821427Y1702374D02*
X678570Y1773803D01*
X678570Y1773803D02*
X392856Y1773803D01*
X392856Y1773803D02*
X249999Y1702374D01*
X-392857Y773803D02*
X-392857Y1773803D01*
X-392857Y1488089D02*
X-464286Y1630946D01*
X-464286Y1630946D02*
X-535715Y1702374D01*
X-535715Y1702374D02*
X-678572Y1773803D01*
X-678572Y1773803D02*
X-821429Y1773803D01*
X-1535714Y773803D02*
X-1392857Y845232D01*
X-1392857Y845232D02*
X-1321428Y916660D01*
X-1321428Y916660D02*
X-1250000Y1059517D01*
X-1250000Y1059517D02*
X-1250000Y1488089D01*
X-1250000Y1488089D02*
X-1321428Y1630946D01*
X-1321428Y1630946D02*
X-1392857Y1702374D01*
X-1392857Y1702374D02*
X-1535714Y1773803D01*
X-1535714Y1773803D02*
X-1750000Y1773803D01*
X-1750000Y1773803D02*
X-1892857Y1702374D01*
X-1892857Y1702374D02*
X-1964286Y1630946D01*
X-1964286Y1630946D02*
X-2035714Y1488089D01*
X-2035714Y1488089D02*
X-2035714Y1059517D01*
X-2035714Y1059517D02*
X-1964286Y916660D01*
X-1964286Y916660D02*
X-1892857Y845232D01*
X-1892857Y845232D02*
X-1750000Y773803D01*
X-1750000Y773803D02*
X-1535714Y773803D01*
X-2678571Y1345232D02*
X-3821429Y1345232D01*
X1857142Y-1569684D02*
X1999999Y-1641112D01*
X1999999Y-1641112D02*
X2285713Y-1641112D01*
X2285713Y-1641112D02*
X2428570Y-1569684D01*
X2428570Y-1569684D02*
X2499999Y-1498255D01*
X2499999Y-1498255D02*
X2571427Y-1355398D01*
X2571427Y-1355398D02*
X2571427Y-926826D01*
X2571427Y-926826D02*
X2499999Y-783969D01*
X2499999Y-783969D02*
X2428570Y-712541D01*
X2428570Y-712541D02*
X2285713Y-641112D01*
X2285713Y-641112D02*
X1999999Y-641112D01*
X1999999Y-641112D02*
X1857142Y-712541D01*
X999999Y-1641112D02*
X1142856Y-1569684D01*
X1142856Y-1569684D02*
X1214285Y-1498255D01*
X1214285Y-1498255D02*
X1285713Y-1355398D01*
X1285713Y-1355398D02*
X1285713Y-926826D01*
X1285713Y-926826D02*
X1214285Y-783969D01*
X1214285Y-783969D02*
X1142856Y-712541D01*
X1142856Y-712541D02*
X999999Y-641112D01*
X999999Y-641112D02*
X785713Y-641112D01*
X785713Y-641112D02*
X642856Y-712541D01*
X642856Y-712541D02*
X571428Y-783969D01*
X571428Y-783969D02*
X499999Y-926826D01*
X499999Y-926826D02*
X499999Y-1355398D01*
X499999Y-1355398D02*
X571428Y-1498255D01*
X571428Y-1498255D02*
X642856Y-1569684D01*
X642856Y-1569684D02*
X785713Y-1641112D01*
X785713Y-1641112D02*
X999999Y-1641112D01*
X-785715Y-1641112D02*
X-785715Y-141112D01*
X-785715Y-1569684D02*
X-642857Y-1641112D01*
X-642857Y-1641112D02*
X-357143Y-1641112D01*
X-357143Y-1641112D02*
X-214286Y-1569684D01*
X-214286Y-1569684D02*
X-142857Y-1498255D01*
X-142857Y-1498255D02*
X-71429Y-1355398D01*
X-71429Y-1355398D02*
X-71429Y-926826D01*
X-71429Y-926826D02*
X-142857Y-783969D01*
X-142857Y-783969D02*
X-214286Y-712541D01*
X-214286Y-712541D02*
X-357143Y-641112D01*
X-357143Y-641112D02*
X-642857Y-641112D01*
X-642857Y-641112D02*
X-785715Y-712541D01*
X-2071429Y-1569684D02*
X-1928572Y-1641112D01*
X-1928572Y-1641112D02*
X-1642858Y-1641112D01*
X-1642858Y-1641112D02*
X-1500000Y-1569684D01*
X-1500000Y-1569684D02*
X-1428572Y-1426826D01*
X-1428572Y-1426826D02*
X-1428572Y-855398D01*
X-1428572Y-855398D02*
X-1500000Y-712541D01*
X-1500000Y-712541D02*
X-1642858Y-641112D01*
X-1642858Y-641112D02*
X-1928572Y-641112D01*
X-1928572Y-641112D02*
X-2071429Y-712541D01*
X-2071429Y-712541D02*
X-2142858Y-855398D01*
X-2142858Y-855398D02*
X-2142858Y-998255D01*
X-2142858Y-998255D02*
X-1428572Y-1141112D01*
X-2785714Y-1641112D02*
X-2785714Y-641112D01*
X-2785714Y-926826D02*
X-2857143Y-783969D01*
X-2857143Y-783969D02*
X-2928572Y-712541D01*
X-2928572Y-712541D02*
X-3071429Y-641112D01*
X-3071429Y-641112D02*
X-3214286Y-641112D01*
X964284Y-2556028D02*
X464284Y-4056028D01*
X464284Y-4056028D02*
X-35715Y-2556028D01*
X-1321429Y-4056028D02*
X-464286Y-4056028D01*
X-892857Y-4056028D02*
X-892857Y-2556028D01*
X-892857Y-2556028D02*
X-750000Y-2770314D01*
X-750000Y-2770314D02*
X-607143Y-2913171D01*
X-607143Y-2913171D02*
X-464286Y-2984600D01*
D11*
%TO.C,J101*%
X-4521200Y-3948500D02*
G75*
G02*
X-5283200Y-3948500I-381000J0D01*
G01*
X-5283200Y-3948500D02*
G75*
G02*
X-4521200Y-3948500I381000J0D01*
G01*
%TD*%
M02*
